<svg width="425" height="266" viewBox="46 40 340 185" fill="none" xmlns="http://www.w3.org/2000/svg">
<path d="M69.5945 182.157H69.8602C71.932 181.465 72.8883 180.135 72.8883 177.901C72.8883 175.666 71.0289 173.272 66.9914 173.272H56.7383V188.115H59.9258V182.582H66.4602L69.5945 188.115H72.9945L69.6477 182.157H69.5945ZM66.832 180.135H59.8727V175.879H66.832C68.107 175.879 69.7539 176.092 69.7539 178.007C69.7539 179.922 68.107 180.135 66.832 180.135Z" fill="#FAF9F7"/>
<path d="M89.7816 185.508V181.784H98.9191V179.284H89.7816V175.932H100.832V173.272H86.541V188.115H101.15V185.508H89.7816Z" fill="#FAF9F7"/>
<path d="M122.241 179.283C119.054 178.964 117.247 178.805 117.247 177.209C117.247 175.613 118.735 175.453 121.816 175.453C124.897 175.453 126.225 176.038 126.916 177.262L129.891 176.251C128.775 174.123 126.013 173.006 121.869 173.006C117.725 173.006 114.166 174.602 114.166 177.528C114.166 180.454 118.469 181.624 121.975 181.997C125.216 182.316 127.235 182.529 127.235 184.231C127.235 185.933 125.641 186.146 122.135 186.146C118.629 186.146 117.035 185.348 116.397 183.699L113.369 184.337C114.007 186.146 115.654 188.434 122.188 188.434C128.722 188.434 130.369 186.891 130.369 183.859C130.369 180.826 126.066 179.709 122.294 179.337L122.241 179.283Z" fill="#FAF9F7"/>
<path d="M152.203 172.953C147.688 172.953 142.906 174.975 142.906 180.667C142.906 186.36 146.359 188.381 152.203 188.381C158.047 188.381 161.5 185.508 161.5 180.667C161.5 175.826 156.666 172.953 152.203 172.953ZM152.203 185.828C148.431 185.828 146.094 183.859 146.094 180.667C146.094 177.475 148.378 175.613 152.203 175.613C156.028 175.613 158.312 177.528 158.312 180.667C158.312 183.806 155.975 185.828 152.203 185.828Z" fill="#FAF9F7"/>
<path d="M187.798 182.157H188.063C190.135 181.465 191.091 180.135 191.091 177.901C191.091 175.666 189.232 173.272 185.195 173.272H174.941V188.115H178.129V182.582H184.663L187.798 188.115H191.198L187.851 182.157H187.798ZM185.035 180.135H178.076V175.879H185.035C186.31 175.879 187.957 176.092 187.957 178.007C187.957 179.922 186.31 180.135 185.035 180.135Z" fill="#FAF9F7"/>
<path d="M203.258 173.272V175.932H209.952V188.115H213.245V175.932H219.939V173.272H203.311H203.258Z" fill="#FAF9F7"/>
<path d="M262.757 184.976H262.492C262.492 184.923 262.651 184.657 262.651 184.657C263.501 183.486 264.086 181.997 264.404 180.294H261.801C261.536 181.731 260.951 182.954 260.154 183.965L260.048 184.071H259.889C259.039 183.593 258.136 183.114 257.339 182.529C256.861 182.209 256.382 181.784 255.904 181.305L255.692 181.092L256.011 180.986C258.667 180.081 259.942 178.592 259.942 176.517C259.942 174.442 258.348 173.006 255.798 173.006C253.248 173.006 251.282 174.495 251.282 176.943C251.282 179.39 251.495 178.964 251.867 179.869L251.973 180.081H251.761C248.998 181.092 247.67 182.475 247.67 184.55C247.67 186.625 249.848 188.434 254.257 188.434C258.667 188.434 258.72 187.955 260.261 186.997H260.367H260.473C262.279 187.636 264.245 188.061 266.211 188.221V185.721C264.989 185.614 263.873 185.401 262.811 185.135L262.757 184.976ZM255.851 175.027C256.967 175.027 257.498 175.879 257.498 176.73C257.498 177.953 256.542 178.858 254.736 179.39H254.576C254.576 179.443 254.47 179.283 254.47 179.283C254.098 178.485 253.886 177.687 253.886 176.889C253.886 176.091 254.629 175.027 255.851 175.027ZM257.286 185.88C256.436 186.146 255.532 186.306 254.629 186.306C252.664 186.306 250.645 186.04 250.645 184.178C250.645 182.316 251.336 182.422 252.77 181.837H252.929C252.929 181.784 253.036 181.89 253.036 181.89C253.673 182.741 254.47 183.486 255.373 184.231C256.064 184.763 256.754 185.189 257.392 185.508L257.817 185.721L257.339 185.88H257.286Z" fill="#FAF9F7"/>
<path d="M302.653 179.283C299.466 178.964 297.713 178.805 297.713 177.209C297.713 175.613 299.2 175.453 302.281 175.453C305.363 175.453 306.691 176.038 307.381 177.262L310.356 176.251C309.241 174.123 306.478 173.006 302.334 173.006C298.191 173.006 294.631 174.602 294.631 177.528C294.631 180.454 298.934 181.624 302.441 181.997C305.681 182.316 307.647 182.529 307.647 184.231C307.647 185.933 306.053 186.146 302.547 186.146C299.041 186.146 297.447 185.348 296.809 183.699L293.781 184.337C294.419 186.146 296.066 188.434 302.6 188.434C309.134 188.434 310.781 186.891 310.781 183.859C310.781 180.826 306.478 179.709 302.706 179.337L302.653 179.283Z" fill="#FAF9F7"/>
<path d="M333.838 173.272H324.223V188.115H327.41V182.955H333.838C337.982 182.955 340.001 181.359 340.001 178.114C340.001 174.868 336.707 173.272 333.838 173.272ZM333.945 180.508H327.357V175.826H333.945C335.91 175.826 336.866 176.624 336.866 178.167C336.866 179.71 335.857 180.508 333.945 180.508Z" fill="#FAF9F7"/>
<path d="M361.092 173.166H357.32L349.67 188.115H352.804L354.398 184.976H363.695L365.342 188.115H368.795L361.092 173.166ZM355.514 182.689L359.02 175.932L362.526 182.689H355.514Z" fill="#FAF9F7"/>
<path d="M148.008 208.119H141.102V218.759H143.439V215.088H148.008C150.983 215.088 152.47 213.971 152.47 211.577C152.47 209.183 150.08 208.065 148.008 208.065V208.119ZM148.061 213.279H143.439V210.034H148.061C149.442 210.034 150.133 210.566 150.133 211.63C150.133 212.694 149.442 213.226 148.061 213.226V213.279Z" fill="#FAF9F7"/>
<path d="M161.82 208.012H159.058L153.586 218.758H155.923L157.039 216.524H163.627L164.795 218.758H167.345L161.82 208.012ZM157.889 214.821L160.333 210.14L162.777 214.821H157.942H157.889Z" fill="#FAF9F7"/>
<path d="M173.295 216.843V208.118H170.904V218.758H180.892V216.843H173.242H173.295Z" fill="#FAF9F7"/>
<path d="M196.722 208.118L192.366 216.471L188.116 208.118H184.557V218.758H186.788V210.246L191.144 218.758H193.535L197.891 210.353V218.758H200.282V208.118H196.882H196.722Z" fill="#FAF9F7"/>
<path d="M219.194 213.279L218.716 213.173L219.194 213.066C219.938 212.907 221.16 212.321 221.16 210.672C221.16 209.023 219.194 208.065 217.335 208.065H210.057V218.705H217.6C218.769 218.705 221.479 218.439 221.479 215.833C221.479 213.226 220.788 213.545 219.247 213.226L219.194 213.279ZM212.341 209.927H217.069C218.291 209.927 218.875 210.353 218.875 211.204C218.875 212.055 218.663 212.481 217.069 212.481H212.288V209.927H212.341ZM217.229 216.95H212.341V214.183H217.122C218.45 214.183 219.141 214.609 219.141 215.567C219.141 216.524 218.504 216.95 217.229 216.95Z" fill="#FAF9F7"/>
<path d="M227.961 216.843V214.289H234.442V212.427H227.961V210.14H235.823V208.118H225.57V218.758H236.036V216.843H227.908H227.961Z" fill="#FAF9F7"/>
<path d="M247.297 208.012H244.534L239.062 218.758H241.4L242.516 216.524H249.103L250.272 218.758H252.822L247.297 208.012ZM243.419 214.821L245.862 210.14L248.306 214.821H243.472H243.419Z" fill="#FAF9F7"/>
<path d="M265.52 214.875C264.936 216.258 263.448 217.056 261.482 217.056C259.517 217.056 257.179 215.726 257.179 213.439C257.179 211.151 258.72 209.874 261.429 209.874C264.139 209.874 264.829 210.619 265.361 211.843L267.592 211.151C266.795 209.076 264.564 207.853 261.482 207.853C258.401 207.853 254.842 209.289 254.842 213.385C254.842 217.482 257.286 218.918 261.482 218.918C265.679 218.918 266.689 217.695 267.645 215.567L265.52 214.875Z" fill="#FAF9F7"/>
<path d="M280.925 208.118V212.268H273.754V208.118H271.416V218.758H273.754V214.236H280.925V218.758H283.316V208.118H280.925Z" fill="#FAF9F7"/>
<path d="M94.7227 142.204H87.0195C83.3008 142.204 80.7508 141.406 79.2102 139.81C77.6695 138.214 76.9258 135.607 76.9258 131.83V95.0156H92.9695C103.488 95.0156 109.598 98.5268 111.245 105.549C111.245 104.326 111.138 102.996 111.032 101.559L110.873 94.1112L110.979 84.4288C109.226 90.2276 103.223 93.2068 93.1289 93.2068H76.9258V60.01C76.9258 56.4456 77.8289 53.8388 79.6352 52.2428C81.4414 50.7 84.3633 49.902 88.4008 49.902H94.6695C106.782 49.902 114.379 55.754 117.248 67.2984L116.982 48.3592C116.982 48.1464 116.982 48.0932 116.982 48.0932C116.982 48.0932 116.876 48.04 116.557 48.04H56.7383C57.6945 48.1996 58.5445 48.4124 59.2883 48.6252C61.307 49.3168 62.6352 50.5404 63.3258 52.3492C63.9633 53.9452 64.282 56.3392 64.282 59.6908V132.522C64.282 135.767 63.9633 138.267 63.3258 139.916C62.6352 141.778 61.2539 143.002 59.3414 143.64C58.7039 143.853 57.9602 144.013 57.1102 144.119H119.373C120.223 144.119 120.435 143.96 120.435 143.96C120.435 143.96 120.648 143.694 120.648 142.896C120.648 136.778 121.126 130.021 121.976 122.786C117.832 135.767 108.641 142.31 94.7227 142.31V142.204Z" fill="#FAF9F7"/>
<path d="M344.41 48.04H344.516H345.791H344.41ZM367.307 48.0932H368.635C368.635 48.0932 368.688 48.0932 368.741 48.0932H367.307Z" fill="#FAF9F7"/>
<path d="M251.814 137.31C249.051 133.426 246.979 128.957 244.748 124.754L206.179 46.9229H205.436L171.17 124.222C168.036 130.447 165.326 136.99 159.748 141.459C156.72 143.853 155.764 144.066 155.764 144.066H181.529L178.767 143.108C171.011 139.81 170.373 131.883 173.082 124.808L181.476 105.762H220.948C220.948 105.709 233.592 131.351 233.592 131.351C234.92 134.65 237.895 140.448 234.123 142.896C233.645 143.215 232.104 143.96 231.892 144.066H259.357C259.411 144.066 259.464 144.013 259.411 143.906C256.117 142.842 253.779 140.076 251.814 137.31ZM182.326 104.06L200.229 63.6277L220.045 104.06H182.273H182.326Z" fill="#FAF9F7"/>
<path d="M368.636 48.0932C365.927 48.7848 363.695 50.3276 361.995 52.6684C359.605 55.9136 358.383 60.3824 358.383 66.0748V110.124C358.383 117.466 356.789 123.903 353.761 129.33C350.68 134.756 346.27 138.959 340.692 141.885C335.061 144.811 328.42 146.3 321.036 146.3C313.652 146.3 306.905 144.811 301.114 141.938C295.377 139.065 290.861 134.862 287.673 129.436C284.486 124.01 282.892 117.572 282.892 110.231V59.5844C282.892 56.286 282.573 53.8388 281.883 52.2428C281.139 50.4872 279.758 49.2636 277.845 48.572C277.314 48.3592 276.73 48.1996 276.039 48.0932H302.602C301.805 48.2528 301.114 48.4124 300.53 48.6252C298.564 49.37 297.183 50.7 296.492 52.5088C295.855 54.2112 295.536 56.6052 295.536 59.9036V104.751C295.536 117.413 298.245 127.095 303.558 133.373C308.923 139.757 316.52 142.949 326.189 142.949C335.858 142.949 342.658 140.023 347.917 134.33C353.123 128.638 355.78 120.552 355.78 110.231V66.0216C355.78 63.202 355.461 60.6484 354.823 58.414C354.186 56.1796 353.177 54.2112 351.848 52.562C349.989 50.2744 347.545 48.7316 344.57 48.04H368.689L368.636 48.0932Z" fill="#FAF9F7"/>
</svg>
