<svg width="140" height="52" viewBox="0 0 140 52" fill="none" xmlns="http://www.w3.org/2000/svg">
<path d="M5.0443 41.7962V52H3.74787V41.7962H0V40.5259H8.76565V41.7962H5.01778H5.0443Z" fill="white"/>
<path d="M20.1537 40.5259H18.8572V52H20.1537V40.5259Z" fill="white"/>
<path d="M33.118 50.7563H36.4445C38.9814 50.7563 40.982 48.8331 40.982 46.2895C40.982 43.7459 38.9519 41.7962 36.3885 41.7962H33.0914V50.7563H33.1209M36.4445 40.5259C39.771 40.5259 42.3344 43.0133 42.3344 46.2629C42.3344 49.5126 39.7681 52 36.415 52H31.848V40.5259H36.471H36.4415H36.4445Z" fill="white"/>
<path d="M54.2027 41.7962V45.5539H59.9806V46.8272H54.2027V50.7563H60.8822V52H52.9062V40.5259H60.6583V41.7962H54.2027Z" fill="white"/>
<path d="M78.0482 50.7563V52H71.734V40.5259H73.0304V50.7563H78.0482Z" fill="white"/>
<path d="M90.0255 40.5259H88.729V52H90.0255V40.5259Z" fill="white"/>
<path d="M109.87 52L102.993 42.7858V52H101.696V40.5259H103.049L109.926 49.7371V40.5259H111.222V52H109.87Z" fill="white"/>
<path d="M123.795 41.7962V45.5539H129.573V46.8272H123.795V50.7563H130.474V52H122.498V40.5259H130.247V41.7962H123.795Z" fill="white"/>
<path d="M115.648 29.8996C105.98 29.8996 100.877 24.0207 93.4374 17.6632L133.123 18.1418C131.29 21.5067 125.118 29.8996 115.648 29.8996ZM3.86278 15.8257C5.04725 14.836 19.6469 3.0517 44.8743 4.35155C56.4302 4.94535 70.0457 9.21123 79.8249 14.836L3.86278 15.8257ZM89.7721 14.6942C80.1902 7.40325 64.1793 0 43.9697 0C23.7601 0 2.17153 16.5613 2.17153 16.5613L84.109 17.548C94.0591 24.5288 101.923 34.4786 115.141 34.4786C128.359 34.4786 140 14.0443 140 14.0443L89.7721 14.6942Z" fill="white"/>
</svg>
