<svg xmlns="http://www.w3.org/2000/svg" width="1480" height="1200" viewBox="0 0 1480 1200" version="1.1">
	<path d="M 0 600.001 L 0 1200.001 740.250 1199.751 L 1480.500 1199.500 1480.751 599.750 L 1481.002 0 740.501 0 L 0 0 0 600.001 M 0.497 600.500 C 0.497 930.500, 0.611 1065.649, 0.750 900.832 C 0.889 736.015, 0.889 466.015, 0.750 300.832 C 0.611 135.649, 0.497 270.500, 0.497 600.500 M 442 241.700 C 407.596 245.430, 391.729 248.133, 372.500 253.537 C 327.494 266.185, 295.071 283.174, 265.764 309.463 C 252.185 321.645, 236.603 340.480, 227.696 355.480 C 222.492 364.244, 216.046 377.764, 213.016 386.269 C 207.301 402.312, 202.414 425.612, 201.470 441.321 C 201.134 446.919, 200.698 452.781, 200.501 454.347 C 199.910 459.059, 201.795 479.712, 203.985 492.500 C 207.359 512.213, 211.412 525.020, 219.491 541.500 C 227.574 557.989, 238.422 573.895, 250.146 586.449 C 257.596 594.427, 272.939 608.069, 283.819 616.390 C 294.646 624.671, 322.823 642.317, 338.500 650.636 C 371.046 667.906, 392.493 677.358, 464.230 706.051 C 491.581 716.991, 519.031 728.243, 525.230 731.055 C 531.428 733.867, 537.175 736.368, 538 736.613 C 539.103 736.940, 540.522 734.471, 543.362 727.279 C 550.703 708.693, 562.404 690.881, 577.830 674.809 C 583.016 669.407, 591.475 661.775, 596.629 657.850 C 601.783 653.925, 606 650.403, 606 650.025 C 606 648.847, 573.684 634.729, 547.500 624.467 C 482.948 599.169, 444.031 583.573, 428.954 576.959 C 396.097 562.545, 366.815 546.891, 349.500 534.483 C 333.778 523.217, 317.154 506.860, 307.847 493.500 C 302.700 486.113, 295.892 471.783, 293.106 462.473 C 289.894 451.740, 288 436.409, 288 421.138 C 288 398.985, 291.845 381.191, 300.539 363.111 C 303.570 356.807, 308.622 347.790, 311.765 343.074 C 318.737 332.611, 334.535 316.468, 346 308.088 C 356.218 300.620, 380.881 288.346, 394 284.200 C 404.240 280.964, 417.742 278.114, 436 275.334 C 451.623 272.956, 484.803 272.984, 501.500 275.390 C 518.333 277.816, 530.649 280.603, 544 285.008 C 571.613 294.117, 597.468 309.589, 617.349 328.904 C 631.482 342.634, 643.896 358.334, 653.724 374.910 C 658.597 383.129, 663 392.459, 663 394.565 C 663 397.650, 665.158 396.734, 668.703 392.145 C 670.791 389.441, 675.875 382.849, 680 377.496 C 690.759 363.533, 704.576 347.335, 710.885 341.289 L 716.322 336.077 715.672 311.789 C 715.314 298.430, 714.721 280.637, 714.355 272.250 L 713.688 257 704.361 257 L 695.034 257 692.610 261.750 C 688.489 269.826, 684.556 274.386, 679.200 277.298 C 675.011 279.575, 672.785 280.099, 667.227 280.117 C 663.472 280.129, 659.072 279.840, 657.450 279.476 C 653.633 278.619, 618.908 268.208, 599 261.952 C 552.508 247.342, 510.721 240.811, 465.986 241.160 C 454.719 241.248, 443.925 241.491, 442 241.700 M 995.500 241.553 C 994.400 241.723, 987.875 242.368, 981 242.987 C 964.635 244.460, 942.006 247.588, 929.500 250.105 C 898.374 256.371, 863.387 267.394, 838.573 278.751 C 808.155 292.674, 782.267 308.565, 757.680 328.405 C 738.831 343.616, 715.974 366.883, 701.490 385.603 C 692.140 397.687, 677.439 419.555, 671.308 430.500 C 654.117 461.187, 641.431 493.087, 637.883 514.552 C 636.280 524.255, 636.275 551.565, 637.875 562.500 C 639.211 571.630, 644.790 590.717, 649.568 602.500 C 653.764 612.851, 661.635 629.462, 664.480 633.969 C 667.395 638.589, 668.468 642, 667.006 642 C 664.978 642, 641.808 654.048, 632.042 660.181 C 616.524 669.926, 607.210 676.953, 597.249 686.434 C 592.086 691.348, 585.215 698.924, 581.980 703.270 C 570.368 718.867, 561.226 740.721, 559.049 758.084 C 557.569 769.883, 557.754 786.940, 559.475 797.500 C 563.276 820.821, 573.062 839.212, 591.431 857.555 C 602.092 868.201, 615.110 877.588, 627.283 883.406 C 634.311 886.765, 649.206 892.020, 655.750 893.449 L 659 894.159 658.996 888.329 C 658.990 879.329, 656.257 864.528, 652.561 853.479 C 650.717 847.968, 645.962 836.718, 641.994 828.479 C 629.916 803.403, 626.304 790.416, 625.313 768.500 C 624.877 758.887, 625.188 754.185, 626.873 744.863 C 630.635 724.052, 637.880 707.293, 650.125 691.075 C 657.277 681.602, 664.355 674.229, 673.747 666.468 C 679.713 661.539, 680.617 661.089, 681.500 662.610 C 684.018 666.945, 704.045 696.563, 710.839 706 C 720.169 718.959, 734.703 738.096, 745.771 751.995 C 759.980 769.838, 787.706 801.546, 805.184 819.941 L 821.868 837.500 819.684 839.320 C 818.483 840.321, 813.892 843.544, 809.481 846.482 C 801.076 852.082, 780.058 863, 777.683 863 C 776.606 863, 776.162 860.065, 775.680 849.750 C 775.039 836.045, 772.851 820.459, 771.111 817.208 C 770.564 816.185, 763.998 808.181, 756.522 799.423 C 727.491 765.416, 696.050 725.236, 681.720 703.830 C 678.587 699.149, 675.900 696.130, 675 696.277 C 672.504 696.686, 663.217 709.874, 657.942 720.500 C 648.722 739.071, 645.347 759.648, 648.435 778.457 C 650.522 791.168, 654.273 802.291, 661.794 818.075 C 673.873 843.427, 679.004 860.973, 681.130 884.205 C 682.027 894.012, 682.015 899.680, 681.076 909.056 C 679.466 925.127, 675.710 942.933, 671.417 954.835 C 665.809 970.381, 655.201 989.979, 646.698 1000.500 C 644.475 1003.250, 638.571 1009.705, 633.578 1014.845 C 619.067 1029.784, 606.972 1038.857, 588.803 1048.433 C 576.301 1055.022, 565.766 1059.296, 552.500 1063.162 C 540.984 1066.517, 520.852 1070.379, 506.789 1071.929 C 494.680 1073.265, 458.677 1073.295, 446 1071.980 C 412.262 1068.482, 379.393 1059.792, 351.632 1047.030 C 344.469 1043.738, 327.750 1034.425, 320 1029.411 C 309.967 1022.921, 292.897 1008.898, 282.979 999 C 271.009 987.054, 258.043 971.825, 250.952 961.384 C 233.141 935.157, 219.834 907.647, 210.619 878 C 207.772 868.841, 201.253 842.765, 198.432 829.250 C 197.979 827.083, 197.561 827, 187.040 827 C 181.033 827, 175.904 827.347, 175.641 827.771 C 175.379 828.195, 176.028 842.033, 177.083 858.521 C 180.134 906.211, 184.796 983.765, 187.480 1031.500 C 191.061 1095.166, 190.847 1092.924, 193.383 1093.560 C 194.551 1093.853, 199.092 1093.960, 203.474 1093.797 L 211.441 1093.500 216.073 1085.082 C 222.097 1074.136, 226.823 1069.753, 235.483 1067.078 C 243.355 1064.647, 249.764 1064.505, 263.500 1066.459 C 278.315 1068.567, 288.930 1071.102, 326.500 1081.505 C 369.118 1093.306, 377.494 1095.318, 399.217 1098.980 C 420.054 1102.493, 438.550 1104.499, 465 1106.117 C 481.692 1107.138, 487.812 1107.069, 507.500 1105.638 C 520.150 1104.718, 535.675 1103.298, 542 1102.483 C 590.056 1096.284, 634.207 1080.356, 671.894 1055.621 C 687.210 1045.568, 697.643 1037.333, 709.367 1026.041 C 727.295 1008.774, 741.165 989.959, 752.523 967.500 C 756.974 958.700, 762.304 946.325, 764.367 940 C 767.420 930.641, 770.570 916.583, 774.581 894.406 C 774.871 892.805, 777.784 891.076, 786.975 887.052 C 800.635 881.071, 816.184 871.695, 829.863 861.190 C 835.013 857.236, 839.571 854, 839.991 854 C 840.411 854, 841.357 854.725, 842.092 855.611 C 843.810 857.681, 856.540 868.101, 864.965 874.334 C 880.833 886.073, 895.114 893.289, 910.201 897.190 C 916.485 898.815, 921.657 899.356, 931.500 899.418 C 939.426 899.468, 946.647 898.966, 950 898.132 C 957.857 896.179, 970.481 890.052, 977.690 884.694 C 988.197 876.884, 999.130 862.060, 1004.176 848.780 C 1006.937 841.513, 1010.059 825.700, 1008.955 824.574 C 1007.892 823.489, 999.645 822.367, 995.917 822.800 C 993.729 823.055, 993.062 823.973, 991.563 828.800 C 988.948 837.215, 985.113 843.731, 980.259 848.003 C 974.825 852.787, 970.495 854.843, 962.877 856.260 C 958.395 857.094, 955.136 857.087, 950.173 856.236 C 936.744 853.934, 923.321 846.790, 905 832.195 C 895.151 824.349, 880 810.225, 880 808.890 C 880 808.469, 882.509 804.160, 885.577 799.313 C 891.645 789.723, 908.613 756.323, 913.931 743.500 C 923.124 721.335, 930.815 710.154, 940.109 705.445 C 948.574 701.155, 955.318 702.354, 966.741 710.179 C 973.474 714.791, 981.160 717.980, 985.568 717.990 C 992.084 718.006, 999.742 715.228, 1004.141 711.254 C 1006.353 709.255, 1009.588 704.893, 1011.329 701.560 C 1014.269 695.934, 1014.496 694.783, 1014.498 685.500 C 1014.500 676.909, 1014.166 674.866, 1012.129 671 C 1006.446 660.211, 998.664 653.951, 986.620 650.478 C 982.208 649.206, 978.215 648.892, 970.620 649.221 C 962.485 649.574, 959.127 650.217, 953.500 652.502 C 945.253 655.849, 937.726 660.446, 931.959 665.656 C 927.716 669.489, 919.396 680.096, 914.606 687.779 C 910.061 695.069, 901.506 712.898, 896.027 726.500 C 889.804 741.948, 880.956 762.146, 876.753 770.500 C 872.967 778.025, 864.060 792, 863.050 792 C 862.175 792, 839.245 766.974, 827.316 753 C 799.184 720.045, 794.003 713.684, 778.746 693.375 C 767.185 677.985, 739 636.764, 739 635.245 C 739 634.727, 748.112 629.762, 759.250 624.212 C 796.761 605.521, 816.352 590.261, 828.792 570.047 C 831.520 565.614, 835.224 557.602, 837.024 552.244 C 839.643 544.445, 840.391 540.376, 840.772 531.856 C 841.347 518.993, 839.552 509.682, 834.439 499.013 C 830.358 490.498, 821.724 479.279, 814.608 473.245 C 806.473 466.348, 780.540 453.930, 777.803 455.621 C 776.885 456.189, 770.520 469.208, 768.696 474.250 C 768.239 475.512, 769.690 477.623, 773.889 481.809 C 784.368 492.256, 789.014 505.729, 788.978 525.564 C 788.954 539.160, 786.671 551.453, 782.340 561.304 C 775.811 576.158, 764.828 589.585, 751 599.620 C 743.645 604.958, 728.729 614, 727.279 614 C 725.682 614, 725.132 612.912, 723.368 606.262 C 722.175 601.766, 721.978 597.534, 722.473 587 C 723.403 567.215, 724.753 554.238, 727.519 538.500 C 730.063 524.020, 734.535 504.725, 738.178 492.515 C 741.832 480.266, 752.947 453.096, 760.461 438.044 C 768.288 422.368, 770.688 418.134, 779.240 404.919 C 794.287 381.668, 817.063 355.497, 836.281 339.373 C 856.227 322.638, 871.307 312.709, 893.628 301.616 C 925.197 285.927, 956.223 277.655, 997.500 273.921 C 1021.315 271.767, 1056.295 274.310, 1082.500 280.102 C 1102.749 284.577, 1118.763 290.251, 1138.500 299.945 C 1155.415 308.252, 1166.799 315.324, 1178.055 324.516 C 1190.718 334.858, 1193.018 336.982, 1202.564 347.154 C 1213.256 358.547, 1224.212 373.073, 1231.671 385.746 C 1239.016 398.228, 1247.635 416.539, 1253.400 431.912 C 1259.313 447.680, 1266.312 473.482, 1269.565 491.500 C 1270.956 499.200, 1272.543 507.202, 1273.093 509.281 L 1274.094 513.063 1285.797 512.781 L 1297.500 512.500 1297.227 471.500 C 1297.077 448.950, 1296.742 420.600, 1296.481 408.500 C 1295.716 372.920, 1295.064 338.077, 1294.395 297 C 1294.051 275.825, 1293.569 258.163, 1293.325 257.750 C 1293.081 257.337, 1288.746 257.002, 1283.691 257.005 L 1274.500 257.009 1270.167 265.492 C 1264.892 275.820, 1259.497 280.982, 1251.957 282.914 C 1249.068 283.655, 1244.322 284.239, 1241.409 284.213 C 1232.181 284.130, 1225.232 282.377, 1189 270.992 C 1150.609 258.928, 1119.515 250.782, 1099.500 247.545 C 1094 246.655, 1079.825 244.880, 1068 243.599 C 1051.549 241.819, 1040.746 241.269, 1022 241.258 C 1008.525 241.250, 996.600 241.383, 995.500 241.553 M 612.188 587.250 C 610.378 598.388, 608.557 611.248, 608.141 615.829 C 607.414 623.834, 607.477 624.230, 609.755 626.022 C 611.058 627.047, 615.876 629.807, 620.461 632.155 L 628.798 636.424 632.509 634.462 C 634.550 633.383, 636.427 631.980, 636.681 631.344 C 636.935 630.708, 634.866 625.056, 632.084 618.786 C 625.449 603.829, 619.487 585.503, 617.915 575.240 C 617.222 570.708, 616.389 567, 616.066 567 C 615.743 567, 613.998 576.112, 612.188 587.250 M 1289.630 841.790 C 1289.361 842.225, 1287.988 847.129, 1286.579 852.688 C 1281.162 874.058, 1271.466 902.950, 1262.983 923 C 1250.850 951.675, 1235.138 977.949, 1217.550 998.973 C 1210.890 1006.934, 1191.977 1024.970, 1184.500 1030.490 C 1154.140 1052.906, 1125.791 1064.124, 1083 1070.657 C 1074.341 1071.979, 1065.076 1072.423, 1045.500 1072.456 C 1028.929 1072.484, 1016.055 1072.014, 1010 1071.160 C 995.415 1069.104, 972.659 1064.203, 962.331 1060.895 C 942.895 1054.669, 919.606 1043.861, 902.777 1033.257 C 890.345 1025.423, 870.755 1010.448, 860.575 1000.996 C 851.723 992.777, 836.016 976.408, 829.394 968.500 C 819.102 956.209, 802.853 933.393, 794.447 919.427 C 793.597 918.014, 792.969 919.414, 791.180 926.709 C 785.304 950.666, 774.970 975.690, 763.596 993.500 C 753.684 1009.021, 753.808 1008.773, 754.907 1010.826 C 756.237 1013.312, 771.793 1025.825, 784 1034.229 C 802.160 1046.731, 829.500 1062.327, 846.103 1069.655 C 868.557 1079.565, 900.832 1090.200, 924.161 1095.375 C 962.333 1103.843, 1019.362 1108.506, 1055 1106.074 C 1104.273 1102.712, 1133.379 1097.705, 1171.447 1086.046 C 1207.369 1075.043, 1226.047 1067.423, 1264.362 1048.134 C 1284.047 1038.223, 1293.483 1032.952, 1294.040 1031.552 C 1294.490 1030.423, 1296.042 1016.900, 1297.489 1001.500 C 1298.937 986.100, 1301.006 964.725, 1302.088 954 C 1303.170 943.275, 1305.164 922.800, 1306.519 908.500 C 1307.874 894.200, 1309.648 876.425, 1310.462 869 C 1311.276 861.575, 1312.238 852.237, 1312.600 848.250 L 1313.258 841 1301.688 841 C 1295.325 841, 1289.898 841.356, 1289.630 841.790" stroke="none" fill="#c9a96e" fill-rule="evenodd"/>
</svg>